<svg id="Layer_1" data-name="Layer 1" xmlns="http://www.w3.org/2000/svg" viewBox="0 0 283.46 60.12"><defs><style>.cls-1{fill:#262b46;}.cls-2{fill:#f4991a;}.cls-3{fill:#fff;}</style></defs><path class="cls-1" d="M-.11,3.55H19.13c9.33,0,13.44,4.62,13.44,10.05A8.6,8.6,0,0,1,27.3,22a9.11,9.11,0,0,1,6.34,8.74c0,6.34-4.74,11.53-14.38,11.53H-.11ZM17.21,18.46c3.12,0,4.38-1.61,4.38-3.71,0-2.39-1.74-3.57-4.47-3.57H10.88v7.28ZM10.88,34.6h5.8C20.4,34.6,22,33,22,30.22c0-2.43-1.5-4.15-5.1-4.15h-6Z" transform="translate(0.11 -1.54)"/><path class="cls-1" d="M68.81,27.46c0,9.19-5.73,15.47-15.84,15.47-10.43,0-15.61-6.85-15.61-15.36,0-8.88,5.4-15.5,16-15.5C63,12.07,68.81,18.55,68.81,27.46Zm-20.25.06c0,5.6,1.65,8.06,4.58,8.06s4.45-2.49,4.45-8c0-6.07-1.53-8.15-4.51-8.15C50.37,19.47,48.56,21.42,48.56,27.52Z" transform="translate(0.11 -1.54)"/><path class="cls-1" d="M104,27.46c0,9.19-5.72,15.47-15.83,15.47-10.44,0-15.61-6.85-15.61-15.36,0-8.88,5.4-15.5,16-15.5C98.24,12.07,104,18.55,104,27.46Zm-20.24.06c0,5.6,1.65,8.06,4.57,8.06s4.45-2.49,4.45-8c0-6.07-1.52-8.15-4.5-8.15C85.57,19.47,83.77,21.42,83.77,27.52Z" transform="translate(0.11 -1.54)"/><path class="cls-1" d="M119.83,24c1.74-2.82,4.55-6.82,7.68-11.25h12.28l-9.3,11c1,2.19,9.1,16.28,10.06,18.41H128.27c-.24-.77-5.22-11-5.38-11.51l-3.06,3.12v8.39h-11V1.54h11Z" transform="translate(0.11 -1.54)"/><path class="cls-1" d="M142.91,20.84c0-2.71,0-5.55,0-8.06h10.49c.11.68.28,2.09.34,3.14A9.86,9.86,0,0,1,162,12.07c4.4,0,6.54,2.17,7.51,4.05a10.79,10.79,0,0,1,9-4.05c5.49,0,9.54,3.46,9.54,11V42.22h-10.7V24c0-2.18-.72-4-3.06-4s-3.38,1.59-3.38,5V42.22H160.15V24.12c0-2.21-.56-4-3-4s-3.43,1.38-3.43,5.2V42.22h-10.8Z" transform="translate(0.11 -1.54)"/><path class="cls-1" d="M221.28,33.49a86.35,86.35,0,0,0,.35,8.73h-10.1a11.72,11.72,0,0,1-.45-2.72c-1.41,1.83-3.57,3.43-8.31,3.43-6.6,0-10.17-4.15-10.17-9.39,0-6.91,5.55-9.9,14.54-9.9h3.61V22c0-1.89-.67-3.27-3.31-3.27-2.48,0-3.13,1.14-3.39,3H194c.39-4.92,3.3-9.75,13.77-9.71,9.65,0,13.56,3.75,13.56,10.85Zm-10.53-4.34h-2.43c-3.77,0-5,1.33-5,3.5a2.93,2.93,0,0,0,3.21,3.12c3.71,0,4.23-2.55,4.23-5.71Z" transform="translate(0.11 -1.54)"/><path class="cls-1" d="M227.59,21.23c0-2.81,0-5.83-.08-8.45h10.71c.13.92.26,3.49.26,4.79,1.14-2.83,4-5.46,9.05-5.5v10c-6.2-.27-9,1.14-9,8v12.1H227.59Z" transform="translate(0.11 -1.54)"/><path class="cls-1" d="M262.63,24c1.74-2.82,4.54-6.82,7.68-11.25h12.28l-9.3,11c1,2.19,9.09,16.28,10.06,18.41H271.06c-.23-.77-5.21-11-5.37-11.51l-3.06,3.12v8.39H251.68V1.54h10.95Z" transform="translate(0.11 -1.54)"/><path id="path8" class="cls-2" d="M100.93,52c-8.58,6.32-21,9.7-31.73,9.7A57.47,57.47,0,0,1,30.43,46.87c-.8-.73-.08-1.72.88-1.16A78,78,0,0,0,70.1,56a77.19,77.19,0,0,0,29.59-6c1.45-.62,2.66.95,1.24,2" transform="translate(0.11 -1.54)"/><path id="path10" class="cls-2" d="M104.5,47.88c-1.09-1.41-7.25-.67-10-.34-.85.1-1-.63-.22-1.16,4.91-3.45,13-2.45,13.9-1.3s-.25,9.24-4.86,13.09c-.7.59-1.38.27-1.06-.51,1-2.58,3.35-8.38,2.25-9.78" transform="translate(0.11 -1.54)"/><circle class="cls-3" cx="53.15" cy="25.61" r="15.3"/><path class="cls-1" d="M53,43a15.8,15.8,0,1,1,15.8-15.8A15.81,15.81,0,0,1,53,43Zm0-29.68A13.89,13.89,0,1,0,66.92,27.15,13.89,13.89,0,0,0,53,13.27Z" transform="translate(0.11 -1.54)"/><polygon class="cls-1" points="53.03 19.93 56.73 19.93 56.73 31.3 53.03 28.95 49.56 31.3 49.56 19.93 53.03 19.93"/></svg>